<?xml version="1.0" encoding="utf-8"?>
<!-- Generator: Adobe Illustrator 15.0.2, SVG Export Plug-In . SVG Version: 6.00 Build 0)  -->
<!DOCTYPE svg PUBLIC "-//W3C//DTD SVG 1.1//EN" "http://www.w3.org/Graphics/SVG/1.1/DTD/svg11.dtd">
<svg version="1.1" id="Capa_1" xmlns="http://www.w3.org/2000/svg" xmlns:xlink="http://www.w3.org/1999/xlink" x="0px" y="0px"
	 width="510.236px" height="283.465px" viewBox="0 0 510.236 283.465" enable-background="new 0 0 510.236 283.465"
	 xml:space="preserve">
<g>
	<defs>
		<rect id="SVGID_1_" width="510.236" height="283.465"/>
	</defs>
	<clipPath id="SVGID_2_">
		<use xlink:href="#SVGID_1_"  overflow="visible"/>
	</clipPath>
	<path clip-path="url(#SVGID_2_)" fill="#FFFFFF" d="M108.692,168.448c0,2.771-1.616,4.965-5.196,4.965H93.218v-10.046h10.393
		C107.076,163.367,108.692,165.676,108.692,168.448 M105.229,140.271c0,2.425-1.501,4.273-4.273,4.273h-7.737v-8.661h7.853
		C103.728,135.883,105.229,137.846,105.229,140.271 M128.439,150.895c2.772-3.926,4.966-10.162,4.966-14.896
		c0-14.434-10.278-24.827-26.907-24.827H63.771v86.608h44.113c18.245,0,29.562-11.201,29.562-27.138
		C137.446,161.866,132.827,154.706,128.439,150.895"/>
</g>
<rect x="143.797" y="157.177" fill="#FFFFFF" width="31.641" height="40.603"/>
<g>
	<defs>
		<rect id="SVGID_3_" width="510.236" height="283.465"/>
	</defs>
	<clipPath id="SVGID_4_">
		<use xlink:href="#SVGID_3_"  overflow="visible"/>
	</clipPath>
	<path clip-path="url(#SVGID_4_)" fill="#FFFFFF" d="M275.211,153.551c0-1.731-0.231-3.002-0.346-4.156h-47.348v16.859h16.514
		c-3.118,3.695-7.853,6.004-13.973,6.004c-10.162,0-16.513-7.852-16.513-17.783c0-9.931,6.466-16.975,15.82-16.975
		c5.081,0,9.354,2.425,10.624,4.619h33.835c-5.428-20.786-23.558-32.565-45.268-32.565c-27.6,0-46.769,18.938-46.769,44.69
		c0,25.981,19.4,45.152,47.346,45.152C254.887,199.396,275.211,180.111,275.211,153.551"/>
</g>
<polygon fill="#FFFFFF" points="327.177,197.779 359.279,197.779 340.226,111.17 292.533,111.17 273.479,197.779 305.583,197.779 
	307.776,182.536 324.982,182.536 "/>
<polygon fill="#FFFFFF" points="392.768,197.779 392.768,160.826 396.693,160.826 413.091,197.779 446.464,197.779 446.464,111.17 
	417.595,111.17 417.595,148.123 413.669,148.123 396.116,111.17 363.897,111.17 363.897,197.779 "/>
<g>
	<defs>
		<rect id="SVGID_5_" width="510.236" height="283.465"/>
	</defs>
	<clipPath id="SVGID_6_">
		<use xlink:href="#SVGID_5_"  overflow="visible"/>
	</clipPath>
	<path clip-path="url(#SVGID_6_)" fill="#FFFFFF" d="M159.539,146.155c10.107,0,18.301-8.193,18.301-18.301
		c0-10.107-8.194-18.3-18.301-18.3s-18.301,8.193-18.301,18.3C141.238,137.962,149.432,146.155,159.539,146.155"/>
	<path clip-path="url(#SVGID_6_)" fill="#FFFFFF" d="M315.195,99.411c10.107,0,18.301-8.193,18.301-18.301
		c0-10.107-8.193-18.3-18.301-18.3s-18.301,8.193-18.301,18.3C296.895,91.218,305.088,99.411,315.195,99.411"/>
</g>
</svg>
